<?xml version="1.0" standalone="no"?>
<!DOCTYPE svg PUBLIC "-//W3C//DTD SVG 20010904//EN"
 "http://www.w3.org/TR/2001/REC-SVG-20010904/DTD/svg10.dtd">
<svg version="1.0" xmlns="http://www.w3.org/2000/svg"
 width="512.000000pt" height="512.000000pt" viewBox="0 0 512.000000 512.000000"
 preserveAspectRatio="xMidYMid meet">

<g transform="translate(0.000000,512.000000) scale(0.100000,-0.100000)"
fill="#000000" stroke="none">
<path d="M0 2713 l1 -2408 29 35 c17 19 30 39 30 45 0 6 15 29 33 51 18 21 60
82 92 134 32 52 73 118 91 145 17 28 44 75 60 105 15 30 36 67 46 82 10 14 18
33 18 41 0 17 28 75 41 82 5 4 9 24 9 45 0 21 5 42 11 45 12 8 13 -10 11 -360
-2 -255 -11 -433 -35 -632 l-13 -113 2348 0 2348 0 0 2555 0 2555 -2560 0
-2560 0 0 -2407z m1085 2306 c4 -6 4 -13 1 -16 -6 -6 -74 -22 -129 -30 -20 -3
-40 -9 -43 -14 -3 -5 -18 -9 -34 -9 -16 0 -41 -5 -57 -11 -15 -6 -46 -14 -68
-19 -22 -4 -66 -15 -98 -24 -32 -9 -70 -16 -85 -16 -15 0 -36 -6 -47 -14 -11
-7 -38 -16 -60 -19 -22 -3 -80 -13 -130 -21 -117 -19 -194 -28 -175 -20 8 4
27 15 42 25 14 11 42 19 61 19 20 0 39 5 42 10 3 6 17 10 31 10 13 0 32 4 42
10 9 5 52 19 96 30 61 16 81 18 93 9 11 -10 17 -8 29 9 8 12 24 22 34 22 10 0
22 5 25 10 3 6 19 10 35 10 16 0 31 4 34 9 3 4 28 11 55 15 28 4 65 13 83 21
40 17 213 21 223 4z m95 -563 c0 -25 -35 -43 -95 -50 -33 -4 -73 -8 -90 -11
-16 -2 -52 -7 -80 -10 -27 -4 -55 -11 -61 -17 -7 -5 -29 -8 -50 -6 -23 1 -39
-2 -42 -10 -2 -7 -18 -12 -35 -12 -43 0 -22 19 34 31 24 5 53 13 64 18 33 14
166 49 235 61 36 7 74 16 85 20 23 9 35 4 35 -14z m-276 -491 c15 -23 15 -27
-2 -57 -25 -44 -48 -48 -55 -9 -4 20 0 41 11 61 21 36 25 37 46 5z m4106 -202
c0 -98 -5 -185 -10 -193 -5 -8 -10 -11 -10 -7 0 5 -15 -2 -32 -15 -27 -18 -46
-23 -100 -23 -36 0 -70 3 -74 7 -4 4 -9 29 -12 56 -4 49 1 61 46 94 35 26 112
121 112 138 0 9 9 25 20 35 11 10 20 28 20 40 0 21 17 45 32 45 4 0 8 -80 8
-177z m-4206 91 c5 -18 3 -30 -6 -35 -20 -13 -68 -11 -68 3 0 15 52 67 61 62
4 -2 10 -16 13 -30z m-14 -398 c0 -36 -87 -59 -122 -32 -16 12 -16 14 5 34 37
34 117 33 117 -2z m1784 24 c14 -5 70 -14 125 -19 55 -6 119 -18 143 -27 78
-30 133 -58 154 -80 18 -17 38 -22 122 -27 56 -4 113 -12 129 -18 16 -6 29 -6
31 -1 1 5 37 3 85 -4 45 -8 129 -16 185 -18 57 -1 107 -7 110 -12 12 -17 58
-42 83 -46 16 -2 25 -10 27 -25 3 -20 9 -23 46 -23 23 0 47 -5 53 -11 8 -8 17
-4 32 12 11 13 21 26 21 30 0 14 105 28 188 25 64 -2 89 -7 110 -23 25 -18 26
-24 24 -94 -3 -87 -31 -360 -39 -372 -3 -5 -6 -65 -8 -133 -3 -132 -9 -148
-52 -159 -15 -3 -36 -17 -48 -29 -12 -13 -34 -26 -49 -30 -16 -4 -30 -15 -33
-26 -3 -12 -18 -21 -44 -25 -21 -4 -41 -11 -45 -16 -3 -5 -19 -9 -36 -9 -38 0
-86 -14 -153 -46 -30 -15 -69 -24 -96 -24 -43 0 -92 -13 -209 -55 -25 -9 -47
-20 -50 -23 -3 -4 -17 -13 -32 -19 -37 -17 -41 -58 -8 -105 14 -21 29 -38 33
-38 5 0 33 -24 64 -52 30 -29 69 -61 86 -70 35 -19 102 -24 112 -9 3 6 32 18
65 28 33 9 59 22 57 28 -2 5 18 20 45 32 42 20 48 27 48 53 0 23 6 33 23 39
13 5 36 20 53 33 28 24 93 52 101 45 9 -9 5 -150 -6 -231 -11 -77 -10 -95 3
-130 8 -23 16 -79 18 -126 l3 -85 -45 3 c-25 2 -52 10 -61 18 -8 8 -18 14 -21
14 -8 0 -88 -108 -88 -119 0 -8 -14 -21 -100 -93 -13 -11 -43 -23 -65 -26 -22
-2 -48 -9 -57 -14 -30 -15 -117 42 -118 77 0 6 -20 32 -45 59 -25 27 -45 54
-45 58 0 5 -8 8 -17 6 -16 -3 -18 -16 -19 -91 -1 -87 -1 -88 -37 -125 -20 -21
-37 -43 -37 -49 0 -17 -66 -63 -92 -63 -45 0 -168 28 -190 43 -13 8 -45 35
-71 60 -28 26 -62 48 -81 51 -28 5 -110 39 -155 65 -58 31 -73 136 -26 178 14
12 25 26 25 32 0 20 -65 16 -102 -6 -20 -12 -48 -25 -61 -29 -14 -3 -28 -12
-31 -20 -3 -8 -15 -14 -27 -14 -12 0 -44 -14 -72 -31 -27 -16 -55 -28 -63 -25
-7 3 -35 -6 -61 -19 -72 -37 -185 -64 -230 -55 -86 16 -104 29 -215 156 -104
120 -133 158 -141 186 -4 16 -12 26 -17 23 -6 -4 -10 0 -10 8 0 8 -9 22 -20
32 -11 10 -20 24 -20 32 0 7 -5 13 -11 13 -18 0 -42 30 -93 114 -36 61 -49 93
-51 129 -4 54 -14 89 -27 98 -9 6 36 98 56 114 28 22 34 49 18 85 -8 19 -14
53 -13 75 2 29 -4 49 -20 69 -20 25 -24 44 -27 130 -2 55 -8 106 -14 114 -8 9
-7 16 5 25 8 7 17 23 19 37 2 14 9 24 16 23 6 -2 12 4 12 13 0 8 4 12 10 9 5
-3 12 6 16 20 4 15 16 30 28 34 13 5 21 18 22 32 2 67 5 79 19 79 16 0 58 87
48 102 -8 15 55 68 81 68 27 0 51 -15 51 -32 0 -7 11 -18 25 -25 14 -7 21 -13
15 -13 -5 0 -3 -6 5 -13 15 -12 38 -88 42 -137 3 -34 -41 -93 -64 -87 -10 3
-21 1 -24 -4 -3 -5 -9 -7 -14 -4 -12 7 -23 -31 -25 -83 -1 -24 -7 -47 -12 -50
-6 -4 -19 -36 -29 -72 -10 -36 -24 -70 -31 -75 -7 -6 -16 -27 -20 -48 -5 -34
-4 -37 17 -37 27 0 130 -102 130 -129 0 -6 17 -25 37 -43 21 -18 57 -52 81
-75 24 -24 46 -43 50 -43 4 0 27 -26 52 -57 24 -32 47 -59 51 -61 3 -1 35 -24
70 -50 77 -56 146 -81 259 -92 72 -7 96 -6 160 12 41 11 84 24 95 28 45 19
102 20 116 3 34 -40 140 -62 187 -37 15 7 32 14 38 14 6 0 17 6 23 13 6 8 32
25 58 38 27 13 52 29 56 36 4 7 15 13 22 13 8 0 15 6 15 14 0 18 -31 30 -41
15 -5 -8 -26 4 -66 38 -32 28 -79 62 -104 77 -25 14 -54 35 -64 46 -10 11 -24
20 -32 20 -8 0 -28 14 -45 30 -16 17 -35 30 -42 30 -21 0 -71 28 -92 51 -10
12 -35 30 -55 40 -21 10 -43 24 -50 31 -20 19 -87 68 -93 68 -2 0 -23 18 -45
40 -22 22 -43 40 -45 40 -3 0 -31 16 -62 36 -53 34 -64 37 -178 46 -66 6 -124
15 -127 20 -4 6 -12 7 -19 3 -21 -13 -48 25 -56 78 -4 29 -7 56 -5 61 1 5 -3
13 -10 17 -9 5 -9 14 1 40 10 24 11 34 2 37 -8 2 -6 14 6 40 22 48 41 70 72
87 20 10 31 31 49 87 61 193 88 227 180 226 29 0 55 2 58 5 9 10 251 7 277 -3z
m2436 -269 c0 -72 -4 -121 -11 -128 -6 -6 -8 -17 -3 -24 10 -17 16 -187 6
-193 -5 -3 -19 1 -33 8 -19 9 -23 19 -21 42 2 16 12 36 23 44 18 14 19 19 7
47 -10 23 -12 54 -7 110 4 43 8 108 8 144 1 36 4 69 7 72 18 17 24 -14 24
-122z m-2726 -888 c-4 -21 -8 -48 -8 -60 -1 -28 -32 -31 -40 -5 -9 28 -4 86 8
94 6 4 19 8 30 8 16 0 17 -5 10 -37z m-94 -84 c0 -4 8 -9 18 -12 9 -4 42 -15
72 -27 58 -21 184 -28 195 -10 3 6 19 10 35 10 28 0 28 -1 19 -29 -13 -37 -25
-41 -129 -47 -65 -4 -91 -2 -110 10 -14 8 -42 22 -62 31 -21 9 -40 25 -43 34
-3 10 -20 28 -37 41 l-33 24 25 7 c23 6 50 -11 50 -32z m1880 -66 c0 -7 -4
-13 -10 -13 -5 0 -10 12 -10 28 0 21 2 24 10 12 5 -8 10 -21 10 -27z m-248
-139 c-3 -19 -9 -24 -23 -21 -11 3 -26 -2 -35 -10 -14 -14 -27 -14 -84 1 -8 3
-24 5 -34 5 -11 1 -16 4 -12 8 3 4 33 7 66 7 47 1 63 5 80 23 26 28 49 21 42
-13z m-207 6 c3 -6 -5 -10 -19 -10 -14 0 -28 5 -31 10 -3 6 5 10 19 10 14 0
28 -4 31 -10z m-2845 -381 c0 -11 -7 -27 -15 -35 -13 -14 -15 -11 -15 20 0 25
4 36 15 36 9 0 15 -9 15 -21z m1910 -460 c-11 -8 -7 -9 18 -6 21 2 36 -1 39
-9 2 -7 18 -18 34 -25 19 -7 28 -17 25 -25 -3 -9 2 -14 12 -14 10 0 22 -4 28
-10 5 -5 52 -11 104 -13 60 -2 95 -8 98 -15 2 -7 13 -12 25 -13 16 -1 13 -3
-11 -10 -18 -5 -30 -14 -27 -19 4 -6 0 -10 -7 -11 -52 -4 -78 -8 -117 -17 -52
-13 -136 3 -236 42 -66 27 -101 35 -162 40 -44 2 -55 15 -40 46 10 20 25 27
77 38 36 7 81 17 100 21 50 12 57 12 40 0z m463 -120 c-14 -14 -55 -8 -61 9
-6 19 40 33 58 16 10 -10 11 -17 3 -25z m128 -359 c13 0 11 -34 -2 -47 -8 -8
-8 -13 0 -17 6 -4 11 -2 11 3 0 6 4 11 9 11 4 0 6 -11 4 -24 -4 -17 0 -25 15
-28 30 -8 76 -102 62 -128 -6 -11 -15 -20 -21 -20 -6 0 -8 -8 -5 -18 3 -10 -3
-42 -15 -72 -11 -30 -24 -68 -28 -85 l-7 -29 -22 44 c-16 33 -19 47 -10 57 8
10 8 20 0 37 -6 13 -8 34 -5 45 3 13 -1 29 -12 41 -15 17 -16 29 -9 87 5 37 7
77 6 88 -12 89 -5 145 12 87 5 -17 13 -32 17 -32z m29 -470 c0 -5 -5 -10 -11
-10 -5 0 -7 5 -4 10 3 6 8 10 11 10 2 0 4 -4 4 -10z m-8 -112 c0 -13 2 -35 3
-50 1 -15 -2 -25 -7 -22 -5 3 -6 14 -3 25 4 11 2 19 -4 19 -6 0 -11 11 -11 25
0 31 19 33 22 3z m33 -108 c-3 -5 -12 -10 -18 -10 -7 0 -6 4 3 10 19 12 23 12
15 0z"/>
<path d="M3252 610 c0 -19 2 -27 5 -17 2 9 2 25 0 35 -3 9 -5 1 -5 -18z"/>
<path d="M3271 574 c0 -11 3 -14 6 -6 3 7 2 16 -1 19 -3 4 -6 -2 -5 -13z"/>
<path d="M0 151 c0 -47 4 -80 9 -77 9 6 5 145 -4 155 -3 2 -5 -33 -5 -78z"/>
<path d="M0 45 c0 -8 7 -15 15 -15 19 0 19 16 0 24 -9 3 -15 0 -15 -9z"/>
</g>
</svg>
